# xmcd
#
# Track frame offsets:
#	150
#	24602
#	37847
#	56098
#	72607
#	85302
#	99144
#
# Disc length: 1497 seconds
# Revision: 0
# Processed by: cddbd v1.5.2PL0 Copyright (c) Steve Scherf et al.
# Submitted via: dBpowerAMP V12.0
#
DISCID=5405d707
DTITLE=Eric Lindell - Indian Summer
DYEAR=2014
DGENRE=Blues
TTITLE0=Indian Summer
TTITLE1=Come Back
TTITLE2=The Goodtimes
TTITLE3=California
TTITLE4=Couldn't Leave
TTITLE5=Sweet Beautiful Thing
TTITLE6=Take Me Back
EXTD=
EXTT0=
EXTT1=
EXTT2=
EXTT3=
EXTT4=
EXTT5=
EXTT6=
PLAYORDER=
